HIERARCHY
ROOT Hips
{
	OFFSET 0.000000 0.000000 0.000000 
	CHANNELS 6 Xposition Yposition Zposition Zrotation Yrotation Xrotation
	JOINT LeftUpLeg
	{
		OFFSET 1.363060 -1.794630 0.839290 
		CHANNELS 3 Zrotation Yrotation Xrotation
		JOINT LeftLeg
		{
			OFFSET 2.448110 -6.726130 0.000000 
			CHANNELS 3 Zrotation Yrotation Xrotation
			JOINT LeftFoot
			{
				OFFSET 2.562200 -7.039590 0.000000 
				CHANNELS 3 Zrotation Yrotation Xrotation
				JOINT LeftToeBase
				{
					OFFSET 0.157640 -0.433110 2.322550 
					CHANNELS 3 Zrotation Yrotation Xrotation
					End Site
					{
						OFFSET 0.000000 0.000000 0.000000 
					}
				}
			}
		}
	}
	JOINT RightUpLeg
	{
		OFFSET -1.305520 -1.794630 0.839290 
		CHANNELS 3 Zrotation Yrotation Xrotation
		JOINT RightLeg
		{
			OFFSET -2.542530 -6.985550 0.000000 
			CHANNELS 3 Zrotation Yrotation Xrotation
			JOINT RightFoot
			{
				OFFSET -2.568260 -7.056230 0.000000 
				CHANNELS 3 Zrotation Yrotation Xrotation
				JOINT RightToeBase
				{
					OFFSET -0.164730 -0.452590 2.363150 
					CHANNELS 3 Zrotation Yrotation Xrotation
					End Site
					{
						OFFSET 0.000000 0.000000 0.000000 
					}
				}
			}
		}
	}
	JOINT Spine
	{
		OFFSET 0.028270 2.035590 -0.193380 
		CHANNELS 3 Zrotation Yrotation Xrotation
		JOINT Spine1
		{
			OFFSET 0.056720 2.048850 -0.042750 
			CHANNELS 3 Zrotation Yrotation Xrotation
			JOINT Neck1
			{
				OFFSET -0.054170 1.746240 0.172020 
				CHANNELS 3 Zrotation Yrotation Xrotation
				JOINT Head
				{
					OFFSET 0.104070 1.761360 -0.123970 
					CHANNELS 3 Zrotation Yrotation Xrotation
					End Site
					{
						OFFSET 0.000000 0.000000 0.000000 
					}
				}
			}
			JOINT LeftArm
			{
				OFFSET 3.362410 1.200890 -0.311210 
				CHANNELS 3 Zrotation Yrotation Xrotation
				JOINT LeftForeArm
				{
					OFFSET 4.983000 -0.000000 -0.000000 
					CHANNELS 3 Zrotation Yrotation Xrotation
					JOINT LeftHand
					{
						OFFSET 3.483560 -0.000000 -0.000000 
						CHANNELS 3 Zrotation Yrotation Xrotation
						JOINT LeftHandIndex1
						{
							OFFSET 0.715260 -0.000000 -0.000000 
							CHANNELS 3 Zrotation Yrotation Xrotation
							End Site
							{
								OFFSET 0.000000 0.000000 0.000000 
							}
						}
					}
				}
			}
			JOINT RightArm
			{
				OFFSET -3.136600 1.374050 -0.404650 
				CHANNELS 3 Zrotation Yrotation Xrotation
				JOINT RightForeArm
				{
					OFFSET -5.241900 -0.000000 -0.000000 
					CHANNELS 3 Zrotation Yrotation Xrotation
					JOINT RightHand
					{
						OFFSET -3.444170 -0.000000 -0.000000 
						CHANNELS 3 Zrotation Yrotation Xrotation
						JOINT RightHandIndex1
						{
							OFFSET -0.622530 -0.000000 -0.000000 
							CHANNELS 3 Zrotation Yrotation Xrotation
							End Site
							{
								OFFSET 0.000000 0.000000 0.000000 
							}
						}
					}
				}
			}
		}
	}
}
MOTION
Frames: 13
Frame Time: 0.041667
15.794153 16.662742 -0.829893 11.356840 -71.189321 11.978848 -2.307095 6.600881 7.739820 -3.077545 0.786113 3.975986 3.694999 27.139051 57.681671 4.067000 -12.249100 -36.618900 17.119172 9.973478 -64.816742 -10.456042 -25.400087 64.865206 0.162748 -2.481037 2.538425 -0.280400 3.405500 -9.409700 1.954387 -6.577695 -4.046975 3.993427 -3.912023 -10.032760 3.240839 -4.389615 -2.546645 4.684400 -0.838100 -5.517700 -41.025514 -54.631975 20.445325 14.084188 -12.013320 -5.271368 -6.284512 -3.323656 13.277498 -7.125000 0.000000 0.000000 39.625276 45.339679 29.155181 -12.829714 12.198666 -5.555185 -0.700768 -7.268184 -3.170748 7.125000 0.000000 0.000000 
15.509942 16.738230 -0.822272 8.741076 -71.268788 14.631202 -1.946734 6.745338 7.390163 -3.068110 0.681788 4.045500 4.182836 25.397976 58.417339 4.186400 -12.404400 -37.177900 18.295039 9.631146 -63.780847 -10.242537 -25.184203 64.446905 0.122323 -2.458827 1.974518 -0.337300 3.732300 -10.324600 1.945745 -6.552285 -4.080527 3.678334 -3.965297 -10.788942 3.206945 -4.283005 -2.528355 4.690900 -0.789600 -5.478700 -36.848159 -54.009964 17.893357 14.845928 -12.307800 -5.655930 -6.567098 -3.379066 12.313199 -7.125000 0.000000 0.000000 35.930337 46.453770 28.730144 -14.171606 12.334342 -6.142402 -0.489826 -7.615362 -4.330846 7.125000 0.000000 0.000000 
15.228350 16.823363 -0.815724 7.671372 -71.609963 15.935120 -2.089401 6.930178 7.024529 -3.130534 0.444487 4.090832 4.256760 22.978543 58.238102 4.055700 -12.234200 -36.565700 18.921747 9.535780 -62.881650 -10.082017 -25.005303 64.130244 -0.068992 -2.042306 1.386156 -0.282100 3.415700 -9.438300 1.894154 -6.306435 -4.128484 3.411113 -3.903453 -11.665213 3.211443 -4.336199 -2.497425 4.670700 -0.840800 -5.278000 -33.197073 -53.371574 15.488976 15.366636 -12.535601 -5.810058 -6.715117 -3.230223 12.157940 -7.125000 0.000000 0.000000 32.986805 47.140084 28.472535 -15.685365 12.609359 -6.911076 0.786885 -7.924420 -8.140809 7.125000 0.000000 0.000000 
14.953187 16.911829 -0.813938 9.731168 -72.336900 14.268452 -2.871795 7.273866 6.775344 -3.255183 0.154662 4.124956 4.291855 20.295826 57.864945 4.190700 -12.409900 -37.198000 18.753467 9.743935 -62.091442 -9.968498 -24.867555 63.864423 -0.429948 -1.187561 0.858733 -0.099600 2.035200 -5.603000 1.863356 -6.033870 -4.153315 3.556400 -3.710131 -12.493989 3.145123 -4.329459 -2.550879 4.604700 -0.844600 -5.244900 -29.862556 -52.393299 12.590560 15.706002 -13.111931 -5.744258 -6.490599 -3.034239 12.082109 -7.125000 0.000000 0.000000 28.866023 46.994998 25.838811 -16.441406 12.668837 -7.382734 0.650193 -8.196369 -6.412925 7.125000 0.000000 0.000000 
14.706125 16.998748 -0.828821 16.315010 -73.473204 8.111058 -4.367069 7.725754 6.590935 -3.429192 -0.083904 4.119438 4.423198 17.953771 57.635950 4.380900 -12.650700 -38.074500 17.800238 10.101307 -61.296715 -9.888935 -24.729033 63.569175 -0.755077 -0.420906 0.612291 -0.030100 1.120200 -3.079600 1.835741 -5.970106 -4.280280 4.219647 -3.434419 -14.093882 3.141805 -4.006830 -2.686301 4.594800 -0.702200 -5.292000 -26.559028 -50.683490 8.546711 15.775576 -14.110503 -5.579704 -5.885501 -2.946289 12.438202 -7.125000 0.000000 0.000000 25.621818 46.636470 24.905265 -17.372015 12.858482 -7.714409 0.688292 -8.230747 -6.705987 7.125000 0.000000 0.000000 
14.457276 17.096977 -0.845014 25.394675 -74.345779 -0.671254 -6.157419 7.780199 6.580167 -3.619284 -0.197603 4.032225 4.473202 16.701534 57.288159 4.471200 -12.762300 -38.485200 16.564149 9.987089 -59.987048 -9.803557 -24.487116 63.157491 -1.009375 0.109412 0.410060 -0.009400 0.626000 -1.720300 1.864339 -6.041535 -4.309228 5.392510 -2.960047 -15.186235 3.202465 -3.818653 -2.855828 4.651600 -0.588800 -5.464200 -23.236676 -49.098784 2.556919 15.259911 -15.386630 -5.491502 -5.370329 -2.840590 12.955306 -7.125000 0.000000 0.000000 22.323268 45.703661 21.612168 -16.621817 12.940611 -8.256398 -0.296744 -8.893702 -8.584514 7.125000 0.000000 0.000000 
14.185090 17.216996 -0.860850 34.866571 -74.843952 -9.992622 -8.168599 7.585549 6.735401 -3.797194 -0.186419 3.872561 4.416055 16.617088 56.838710 4.754000 -13.101300 -39.748800 15.077409 9.698079 -58.262771 -9.659194 -24.146518 62.484684 -1.074503 0.073416 0.134250 -0.006300 0.512000 -1.407000 1.850662 -6.073515 -4.374062 6.319188 -2.384124 -16.348773 3.265871 -3.777948 -2.896814 4.704100 -0.568400 -5.455600 -20.196556 -48.110774 -3.151629 14.748871 -16.595074 -5.547845 -5.099856 -2.717459 13.163616 -7.125000 0.000000 0.000000 19.644072 44.524671 19.126631 -17.103386 13.745996 -8.279364 -0.556885 -8.488528 -9.398882 7.125000 0.000000 0.000000 
13.906832 17.370949 -0.864303 39.351325 -75.107723 -14.156682 -9.333198 7.723150 6.553323 -3.854441 -0.077965 3.756966 4.277473 17.624135 56.551781 5.037000 -13.425400 -40.982500 14.460565 9.505672 -56.779400 -9.327049 -23.795737 61.455311 -1.105748 -0.051555 -0.137565 -0.007900 0.574100 -1.577600 1.656346 -5.960310 -4.342365 4.922963 -2.272268 -16.469611 3.251889 -3.714564 -2.948836 4.729000 -0.553800 -5.545600 -14.547946 -47.976554 -10.978037 14.273206 -18.357511 -5.620797 -4.619239 -2.826091 12.964927 -7.125000 0.000000 0.000000 17.814664 43.929304 17.759718 -18.545147 15.094451 -8.455477 0.700471 -7.763928 -11.353588 7.125000 0.000000 0.000000 
13.633694 17.549906 -0.847276 38.313581 -75.076706 -12.804453 -9.302847 8.054245 6.139882 -3.796988 0.080662 3.715278 3.968184 19.529969 56.238931 5.211300 -13.617900 -41.727900 14.976451 9.107288 -55.462831 -8.815435 -23.408647 60.149176 -1.358837 0.417313 -0.234217 -0.001200 -0.221400 0.608300 1.565386 -5.821738 -4.334969 3.627995 -2.264832 -16.515875 3.035797 -3.601939 -3.056830 4.669000 -0.499200 -5.701100 -7.691777 -48.299471 -19.013722 14.345635 -19.879824 -5.902964 -4.360979 -3.017171 12.678114 -7.125000 0.000000 0.000000 16.266305 43.092573 16.005746 -19.767413 16.895530 -8.646892 2.150947 -6.620386 -11.603972 7.125000 0.000000 0.000000 
13.374725 17.706954 -0.852396 43.547586 -75.307461 -17.749067 -10.617381 8.326344 6.071328 -3.821475 0.263574 3.574033 3.556442 21.628148 55.595057 5.315500 -13.730500 -42.168400 14.102009 8.885243 -53.814294 -8.239944 -22.899661 58.434028 -1.635774 0.972736 0.477464 -0.075900 -1.777600 4.891300 1.482018 -5.587857 -4.346161 3.317103 -1.817423 -16.627647 2.872436 -3.615787 -3.054450 4.624600 -0.502700 -5.693300 -1.011783 -48.535631 -27.095231 14.393407 -20.877154 -6.141355 -4.237352 -3.119072 13.285547 -7.125000 0.000000 0.000000 15.035254 42.127842 12.736250 -19.677516 18.725176 -8.928304 3.291166 -5.874623 -11.326173 7.125000 0.000000 0.000000 
13.115398 17.861860 -0.869661 50.912097 -75.436530 -25.082784 -12.567441 8.659181 6.429447 -3.861668 0.406277 3.412186 3.052061 23.510019 54.709615 5.404100 -13.824900 -42.540700 12.648832 8.759829 -51.686179 -7.526547 -22.228822 56.207481 -1.726311 1.015227 1.718799 -0.191500 -2.817900 7.772200 1.401147 -5.304798 -4.341712 3.453030 -1.221059 -16.564008 2.735251 -3.604794 -2.915653 4.601700 -0.491800 -5.515500 6.089953 -48.527768 -36.500780 13.949573 -21.198442 -6.108460 -4.202768 -2.997130 15.058220 -7.125000 0.000000 0.000000 13.368078 41.292338 7.563286 -18.220609 20.350240 -8.725320 3.783087 -5.423633 -10.146494 7.125000 0.000000 0.000000 
12.852619 18.090824 -0.861683 43.990849 -75.484668 -18.007478 -11.088976 9.279815 5.741552 -3.705756 0.505215 3.500798 2.522980 25.257268 54.156444 5.526400 -13.953100 -43.049900 14.591397 8.630577 -50.098666 -6.452025 -21.490130 53.598245 -1.318698 -0.175397 2.422479 -0.105200 -2.091900 5.759700 1.429533 -4.977629 -4.382092 2.611524 -1.309745 -16.703182 2.446192 -3.565172 -2.759811 4.532700 -0.472200 -5.294500 13.111279 -47.840190 -44.996138 13.607900 -21.343032 -6.074770 -4.328500 -2.937917 15.789903 -7.125000 0.000000 0.000000 10.598035 40.815705 0.244765 -15.726698 21.333308 -8.159931 3.824176 -5.554825 -7.686621 7.125000 0.000000 0.000000 
12.598531 18.342173 -0.834179 30.443500 -75.130364 -4.404729 -9.101598 9.713827 2.832419 -2.434530 2.159244 7.531085 1.348658 26.633220 52.499279 5.572100 -14.000400 -43.239100 17.381387 8.196016 -48.942413 -5.271019 -20.745470 50.766720 -0.721092 -1.746214 3.285776 -0.007200 -0.547600 1.504700 1.439584 -4.731567 -4.489433 1.253243 -1.765421 -17.234747 2.198845 -3.590734 -2.650992 4.472000 -0.501300 -5.142900 18.086796 -46.764239 -50.086542 13.666206 -21.605627 -6.137175 -4.468183 -2.918964 15.503897 -7.125000 0.000000 0.000000 7.611263 40.981496 -5.390150 -14.729287 22.325195 -7.989813 4.188501 -5.318962 -6.615814 7.125000 0.000000 0.000000 
